<svg width="581" height="616" viewBox="0 0 581 616" fill="none" xmlns="http://www.w3.org/2000/svg">
<path fill-rule="evenodd" clip-rule="evenodd" d="M9.65977 320.501C18.9187 263.014 67.0254 223.493 99.1511 174.577C135.073 119.881 147.728 43.0023 208.723 17.3965C270.714 -8.62729 345.057 14.2436 403.897 46.644C457.178 75.9833 478.387 136.183 513.505 185.226C548.988 234.779 576.208 268.527 572.979 328.964C569.751 389.366 537.066 426.598 498.102 473.453C460.875 518.218 442.492 582.705 387.326 602.979C331.175 623.615 271.02 595.117 213.616 578.003C153.316 560.027 85.1847 550.197 46.5162 501.377C7.08055 451.588 -0.363812 382.735 9.65977 320.501Z" fill="#EAECFF" fill-opacity="0.7"/>
<path d="M422.825 501.953C422.825 513.629 362.787 523.095 288.729 523.095C214.67 523.095 154.633 513.629 154.633 501.953C154.633 490.277 214.67 480.812 288.729 480.812C362.787 480.812 422.825 490.277 422.825 501.953Z" fill="#FFD1C3"/>
<path d="M188.459 490.477C188.459 491.811 184.943 492.893 180.606 492.893C176.27 492.893 172.754 491.811 172.754 490.477C172.754 489.142 176.27 488.061 180.606 488.061C184.943 488.061 188.459 489.142 188.459 490.477Z" fill="#FF585A" fill-opacity="0.42"/>
<path d="M389.148 516.98C389.148 518.279 385.783 519.334 381.633 519.334C377.482 519.334 374.117 518.279 374.117 516.98C374.117 515.68 377.482 514.626 381.633 514.626C385.783 514.626 389.148 515.68 389.148 516.98Z" fill="#FF585A" fill-opacity="0.42"/>
<path d="M198.124 497.725C198.124 499.059 195.69 500.141 192.687 500.141C189.685 500.141 187.251 499.059 187.251 497.725C187.251 496.39 189.685 495.309 192.687 495.309C195.69 495.309 198.124 496.39 198.124 497.725Z" fill="#FF585A" fill-opacity="0.42"/>
<path d="M395.424 487.939C395.424 488.846 393.077 489.581 390.18 489.581C387.283 489.581 384.936 488.846 384.936 487.939C384.936 487.031 387.283 486.296 390.18 486.296C393.077 486.296 395.424 487.031 395.424 487.939Z" fill="#FF585A" fill-opacity="0.42"/>
<path d="M288.729 518.866C288.729 519.867 286.025 520.679 282.689 520.679C279.353 520.679 276.648 519.867 276.648 518.866C276.648 517.865 279.353 517.054 282.689 517.054C286.025 517.054 288.729 517.865 288.729 518.866Z" fill="#FF585A" fill-opacity="0.42"/>
<path d="M265.762 521.83C266.003 522.967 262.959 524.455 258.963 525.153C254.967 525.851 251.533 525.497 251.292 524.36C251.051 523.224 254.095 521.736 258.09 521.036C262.086 520.338 265.521 520.693 265.762 521.83Z" fill="#FF585A" fill-opacity="0.42"/>
<path d="M135.824 352.326L134.693 352.863C136.022 355.673 137.448 358.478 138.934 361.213L140.037 360.616C138.564 357.904 137.144 355.114 135.824 352.326ZM441.676 352.236C440.353 355.033 438.932 357.831 437.455 360.551L438.56 361.148C440.046 358.408 441.478 355.59 442.811 352.77L441.676 352.236ZM128.806 335.106L127.62 335.513C128.633 338.458 129.743 341.412 130.918 344.295L132.078 343.82C130.912 340.96 129.812 338.029 128.806 335.106ZM448.703 334.961C447.697 337.889 446.597 340.827 445.427 343.7L446.592 344.169C447.767 341.279 448.877 338.318 449.888 335.37L448.703 334.961ZM123.733 317.199L122.508 317.473C123.191 320.511 123.965 323.567 124.815 326.563L126.019 326.222C125.179 323.248 124.407 320.212 123.733 317.199ZM453.76 317.048C453.087 320.064 452.319 323.1 451.478 326.076L452.685 326.415C453.531 323.422 454.305 320.36 454.983 317.322L453.76 317.048ZM120.674 298.84L119.426 298.978C119.768 302.074 120.2 305.198 120.711 308.267L121.95 308.061C121.442 305.015 121.012 301.914 120.674 298.84ZM456.8 298.687C456.466 301.761 456.04 304.864 455.535 307.91L456.77 308.114C457.28 305.048 457.709 301.921 458.048 298.825L456.8 298.687ZM119.645 280.253H118.392C118.395 283.374 118.482 286.528 118.655 289.629L119.906 289.562C119.737 286.483 119.649 283.349 119.645 280.253ZM457.815 279.806V280.105C457.815 283.199 457.729 286.327 457.559 289.409L458.814 289.476C458.98 286.375 459.068 283.221 459.068 280.105V279.804L457.815 279.806ZM119.395 261.533C119.059 264.624 118.802 267.77 118.636 270.882L119.89 270.947C120.056 267.858 120.307 264.737 120.639 261.668L119.395 261.533ZM458.016 261.081L456.77 261.219C457.109 264.285 457.373 267.406 457.544 270.495L458.794 270.427C458.623 267.314 458.36 264.17 458.016 261.081ZM122.442 243.033C121.768 246.069 121.169 249.168 120.661 252.242L121.899 252.445C122.401 249.396 122.997 246.32 123.667 243.302L122.442 243.033ZM454.917 242.589L453.695 242.865C454.373 245.879 454.973 248.952 455.485 252.001L456.723 251.792C456.205 248.719 455.6 245.625 454.917 242.589ZM127.52 224.981C126.514 227.926 125.573 230.942 124.73 233.935L125.937 234.274C126.774 231.301 127.705 228.31 128.708 225.387L127.52 224.981ZM449.788 224.554L448.603 224.96C449.612 227.884 450.554 230.869 451.397 233.843L452.603 233.501C451.754 230.505 450.807 227.495 449.788 224.554ZM134.583 207.573C133.254 210.393 131.984 213.288 130.812 216.176L131.972 216.65C133.138 213.78 134.395 210.907 135.718 208.107L134.583 207.573ZM442.7 207.206L441.568 207.746C442.891 210.531 444.156 213.391 445.321 216.249L446.484 215.772C445.309 212.897 444.036 210.014 442.7 207.206ZM143.527 191.06C141.89 193.717 140.31 196.452 138.828 199.19L139.931 199.789C141.401 197.07 142.972 194.352 144.592 191.715L143.527 191.06ZM433.745 190.757L432.678 191.414C434.302 194.044 435.874 196.751 437.35 199.461L438.452 198.861C436.963 196.129 435.382 193.404 433.745 190.757ZM154.226 175.642C152.31 178.101 150.439 180.645 148.665 183.204L149.696 183.917C151.458 181.378 153.317 178.854 155.216 176.412L154.226 175.642ZM423.029 175.381L422.042 176.151C423.945 178.59 425.803 181.107 427.573 183.639L428.6 182.926C426.82 180.372 424.947 177.835 423.029 175.381ZM166.549 161.493C164.376 163.727 162.238 166.05 160.194 168.398L161.141 169.219C163.169 166.888 165.292 164.582 167.448 162.364L166.549 161.493ZM410.684 161.265L409.787 162.138C411.944 164.351 414.073 166.65 416.109 168.978L417.051 168.155C415.002 165.812 412.86 163.493 410.684 161.265ZM180.339 148.78C177.937 150.762 175.561 152.837 173.27 154.947L174.122 155.868C176.395 153.776 178.756 151.713 181.138 149.746L180.339 148.78ZM396.867 148.574L396.071 149.543C398.459 151.507 400.827 153.562 403.101 155.655L403.952 154.729C401.658 152.624 399.275 150.551 396.867 148.574ZM195.433 137.657C192.831 139.363 190.238 141.165 187.734 143.012L188.48 144.02C190.966 142.186 193.536 140.402 196.119 138.706L195.433 137.657ZM381.735 137.469L381.047 138.518C383.641 140.206 386.217 141.993 388.712 143.825L389.456 142.813C386.942 140.972 384.346 139.17 381.735 137.469ZM211.646 128.263C208.875 129.671 206.104 131.174 203.411 132.737L204.041 133.821C206.712 132.273 209.464 130.777 212.213 129.38L211.646 128.263ZM365.466 128.085L364.898 129.204C367.66 130.602 370.422 132.092 373.106 133.64L373.729 132.554C371.029 130.996 368.245 129.493 365.466 128.085ZM228.787 120.718C225.878 121.807 222.96 122.999 220.113 124.251L220.618 125.398C223.446 124.153 226.342 122.974 229.229 121.89L228.787 120.718ZM348.245 120.558L347.808 121.732C350.71 122.814 353.623 123.993 356.46 125.232L356.959 124.086C354.102 122.831 351.17 121.649 348.245 120.558ZM246.69 115.101C243.668 115.868 240.631 116.729 237.659 117.66L238.035 118.857C240.985 117.928 244.001 117.078 246.997 116.315L246.69 115.101ZM330.308 114.985L330.004 116.2C333.005 116.952 336.023 117.798 338.973 118.716L339.347 117.519C336.372 116.596 333.334 115.743 330.308 114.985ZM265.101 111.5C262.013 111.929 258.9 112.451 255.847 113.046L256.085 114.278C259.116 113.686 262.207 113.169 265.273 112.742L265.101 111.5ZM311.885 111.437L311.716 112.679C314.785 113.096 317.875 113.603 320.911 114.185L321.144 112.955C318.091 112.368 314.975 111.854 311.885 111.437ZM283.8 109.947C280.681 110.035 277.527 110.21 274.43 110.466L274.534 111.718C277.609 111.46 280.741 111.287 283.834 111.202L283.8 109.947ZM293.185 109.934L293.155 111.186C296.248 111.267 299.376 111.432 302.454 111.681L302.555 110.429C299.457 110.183 296.301 110.012 293.185 109.934Z" fill="#EACBC5"/>
<path d="M361.213 112.957C361.213 133.974 344.173 151.009 323.161 151.009C302.143 151.009 285.104 133.974 285.104 112.957C285.104 111.121 285.233 109.312 285.489 107.546C288.115 89.0894 303.98 74.9004 323.161 74.9004C328.13 74.9004 332.877 75.8564 337.229 77.5893C351.279 83.1817 361.213 96.9116 361.213 112.957Z" fill="#F0E3E0"/>
<path d="M361.213 113.442C361.213 134.191 344.173 151.009 323.161 151.009C302.143 151.009 285.104 134.191 285.104 113.442C285.104 111.629 285.233 109.843 285.489 108.1C288.827 105.074 295.501 104.068 308.303 113.442C331.162 130.187 330.421 122.903 334.666 111.619C338.909 100.335 338.175 96.6942 346.466 96.6942C352.25 96.6942 346.098 87.1462 337.229 78.5246C351.279 84.0457 361.213 97.6007 361.213 113.442Z" fill="#EACBC5"/>
<path d="M405.316 155.213C403.267 166.568 397.188 167.1 393.994 188.471C390.799 209.84 388.71 206.213 367.291 223.677C345.872 241.138 350.334 230.657 346.736 246.714C343.139 262.765 338.089 289.823 336.194 294.113C336.194 294.113 319.389 306.698 299.635 312.326C299.278 312.431 298.916 312.531 298.554 312.628C278.335 318.096 287.851 306.898 284.545 302.157C281.242 297.416 281.432 281.996 292.78 268.849C304.124 255.704 302.49 247.655 310.702 242.022C318.915 236.385 319.938 224.523 318.212 212.622C316.49 200.72 329.666 197.23 338.977 195.36C348.29 193.485 354.696 175.259 355.949 170.003C357.202 164.748 364.209 158.693 376.964 154.492C389.721 150.29 394.999 144.52 399.399 140.136C403.801 135.757 407.37 143.861 405.316 155.213Z" fill="#B79868"/>
<path d="M405.806 154.795C403.747 166.202 397.637 166.736 394.426 188.206C391.216 209.673 389.117 206.028 367.589 223.573C346.062 241.115 350.547 230.586 346.93 246.715C343.316 262.84 338.239 290.023 336.336 294.332C336.336 294.332 319.446 306.976 299.591 312.629C298.518 299 300.896 281.002 301.282 276.251C302.12 266.02 338.944 216.643 344.482 210.849C350.022 205.055 372.49 184.747 382.603 174.381C392.718 164.015 398.337 147.348 399.859 139.648C404.283 135.249 407.87 143.39 405.806 154.795Z" fill="url(#paint0_linear_3545_9569)"/>
<path d="M269.369 334.233C269.071 345.411 266.666 347.172 263.65 346.63C260.981 346.152 257.833 343.869 255.24 344.723C249.718 346.539 234.911 341.906 225.519 327.168C216.124 312.43 207.896 311.686 204.836 302.137C201.778 292.589 190.643 288.18 178.674 286.409C166.708 284.64 167.147 270.922 168.031 261.4C168.916 251.88 153.196 240.438 148.493 237.712C143.792 234.991 139.982 226.481 139.612 212.964C139.245 199.45 135.209 192.694 132.256 187.186C131.362 185.518 131.55 184.254 132.532 183.448C134.792 181.591 141.277 182.167 148.493 185.83C158.844 191.083 157.602 197.101 177.272 206.349C196.946 215.597 192.844 216.567 203.49 242.265C214.136 267.962 205.328 260.638 219.759 268.738C234.189 276.841 258.808 289.521 262.395 292.589C262.395 292.589 269.937 313.154 269.369 334.233Z" fill="#B79868"/>
<path d="M263.563 346.306C260.898 345.829 257.754 343.549 255.164 344.402C249.649 346.215 234.862 341.59 225.483 326.878C216.1 312.165 207.883 311.422 204.827 301.889C201.773 292.358 190.653 287.956 178.7 286.188C166.75 284.422 167.188 270.728 168.071 261.222C168.954 251.719 153.256 240.297 148.558 237.576C143.864 234.859 140.059 226.364 139.689 212.87C139.323 199.379 135.293 192.635 132.343 187.137C131.45 185.472 131.638 184.21 132.618 183.405C135.722 183.746 139.849 185.379 145.317 188.777C145.317 188.777 179.461 227.192 183.861 243.73C188.26 260.272 187.152 266.938 200.536 276.251C213.924 285.569 228.589 293.823 235.92 302.892C243.254 311.964 260.055 321.543 258.255 328.854C257.187 333.175 263.813 341.565 263.563 346.306Z" fill="url(#paint1_linear_3545_9569)"/>
<path d="M282.551 302.151C282.501 302.596 282.437 302.951 282.371 303.202C281.627 305.974 262.775 303.202 262.775 303.202C261.613 299.985 244.443 289.847 237.817 275.474C231.195 261.101 234.94 266.583 224.927 260.134C214.917 253.688 210.602 250.518 212.204 237.395C213.802 224.274 208.668 219.206 209.013 208.671C209.228 202.1 211.761 195.383 214.493 193.697C216.145 192.673 217.867 193.488 219.19 197.294C222.698 207.389 223.401 212.238 230.834 214.988C238.263 217.74 251.594 231.532 253.813 240.07C256.033 248.606 265.191 261.58 274.241 273.156C282.479 283.691 283.071 297.63 282.551 302.151Z" fill="#796A38"/>
<path d="M227.117 336.226C226.069 333.443 219.985 315.156 213.274 313.256C206.563 311.358 209.613 311.903 204.985 306.167C200.358 300.431 202.692 300.702 194.316 298.899C185.94 297.092 178.131 298.242 175.736 293.487C173.34 288.73 165.7 288.413 161.728 287.616C157.755 286.822 152.479 291.166 153.57 293.571C154.661 295.976 157.692 295.996 160.496 302.943C163.301 309.886 163.81 313.578 166.927 313.961C170.045 314.341 174.33 313.294 177.947 318.895C181.563 324.497 178.752 327.557 184.585 330.287C190.418 333.014 191.231 336.274 196.516 340.627C201.8 344.981 210.265 346.069 214.386 345.263C218.507 344.453 227.117 336.226 227.117 336.226Z" fill="#796A38"/>
<path d="M281.994 302.729C278.643 298.501 276.01 294.445 276.01 294.445C276.01 294.445 268.797 292.11 266.508 287.708C264.219 283.309 240.2 253.613 233.389 246.364C226.574 239.111 226.634 234.915 220.139 218.73C216.337 209.254 215.066 199.833 214.668 193.227C216.303 192.194 218.006 193.016 219.315 196.859C222.785 207.052 223.48 211.948 230.833 214.724C238.183 217.503 251.37 231.428 253.566 240.049C255.761 248.667 264.82 261.767 273.774 273.455C281.922 284.092 282.508 298.165 281.994 302.729Z" fill="url(#paint2_linear_3545_9569)"/>
<path d="M385.315 255.201C384.65 259.557 384.693 267.866 379.652 270.703C374.611 273.536 376.25 281.955 374.712 291.14C373.174 300.323 373.352 297.773 367.358 303.082C361.368 308.391 361.807 305.053 360.084 312.432C358.36 319.811 338.822 327.321 335.856 328.595C335.856 328.595 332.642 325.525 329.762 322.089C327.729 319.664 325.858 317.054 325.411 315.218C324.327 310.782 325.085 301.542 329.543 295.586C334.002 289.635 337.497 288.59 340.167 282.124C342.831 275.656 346.294 278.557 352.193 274.355C358.089 270.153 356.734 265.553 356.993 262.147C357.249 258.746 361.23 258.009 368.625 254.621C376.021 251.235 375.891 247.943 378.445 246.64C378.857 246.431 379.328 246.398 379.833 246.508C382.455 247.083 385.872 251.551 385.315 255.201Z" fill="#796A38"/>
<path d="M246.835 255.499C246.835 255.499 242.83 281.786 275.052 281.492C307.275 281.2 338.358 291.993 340.59 253.895C342.821 215.799 301.006 216.245 301.006 216.245C301.006 216.245 242.331 242.228 246.676 254.336C251.022 266.443 246.835 255.499 246.835 255.499Z" fill="#641A2A"/>
<path d="M378.541 255.504C374.874 266.502 362.408 282.521 350.675 297.033C343.015 306.509 334.774 316.675 329.777 322.295C327.746 319.85 325.875 317.219 325.428 315.368C324.345 310.896 325.102 301.581 329.559 295.576C334.016 289.577 337.51 288.523 340.179 282.005C342.842 275.483 346.304 278.408 352.2 274.172C358.094 269.935 356.74 265.298 356.998 261.864C357.254 258.436 361.234 257.693 368.626 254.277C376.02 250.864 375.889 247.545 378.443 246.231C378.854 246.02 379.326 245.988 379.83 246.098C379.965 248.902 379.674 252.108 378.541 255.504Z" fill="url(#paint3_linear_3545_9569)"/>
<path d="M443.474 290.259C440.591 295.193 436.651 305.233 429.273 306.25C421.895 307.261 419.808 318.198 413.563 328.54C407.32 338.88 408.756 335.889 399.055 339.434C389.357 342.979 391.484 339.162 385.884 347.24C380.286 355.314 353.361 355.052 349.208 355.173C349.208 355.173 346.845 349.94 345.059 344.425C343.796 340.528 342.817 336.49 343.163 334.062C343.999 328.198 349.341 317.415 357.52 312.361C365.699 307.309 370.372 307.719 376.663 301.193C382.951 294.664 385.688 299.814 394.746 297.56C403.801 295.303 404.394 289.109 406.335 285.127C408.274 281.147 413.379 282.158 423.831 281.597C434.285 281.044 435.711 277.011 439.385 276.659C439.975 276.601 440.556 276.789 441.105 277.159C443.958 279.104 445.892 286.123 443.474 290.259Z" fill="#796A38"/>
<path d="M435.007 287.826C425.403 299.198 402.923 312.371 382.028 324.094C368.386 331.751 353.723 339.953 345.093 344.282C343.831 340.396 342.853 336.371 343.199 333.951C344.034 328.104 349.369 317.354 357.538 312.315C365.707 307.279 370.375 307.688 376.658 301.182C382.938 294.673 385.672 299.807 394.719 297.56C403.763 295.31 404.355 289.135 406.294 285.165C408.23 281.197 413.329 282.205 423.768 281.646C434.209 281.094 435.634 277.074 439.303 276.723C439.893 276.665 440.472 276.853 441.021 277.222C439.848 280.633 437.977 284.315 435.007 287.826Z" fill="url(#paint4_linear_3545_9569)"/>
<path d="M163.09 368.025C163.09 368.025 174.179 381.811 192.096 382.76C210.013 383.71 272.827 381.019 284.013 379.598C295.199 378.173 288.96 364.41 278.402 363.698C267.844 362.986 163.09 368.025 163.09 368.025Z" fill="#872745"/>
<path d="M425.389 371.68C421.451 378.201 413.159 381.004 406.821 384.291C397.213 389.276 349.992 384.452 339.11 385.259C333.756 385.654 327.245 385.661 319.211 385.453C317.893 385.418 316.497 385.302 315.033 385.131C307.301 384.216 297.724 381.725 287.66 381.308C264.128 380.342 256.111 369.657 256.111 369.657L309.045 357.905L324.218 354.542C362.637 330.091 383.767 336.207 395.454 337.368C407.142 338.535 423.788 340.709 427.151 358.076C428.292 363.983 427.421 368.327 425.389 371.68Z" fill="#FF585A"/>
<path d="M319.341 385.262C319.08 385.257 318.817 385.247 318.548 385.232C318.31 385.222 318.064 385.207 317.821 385.189C317.61 385.177 317.402 385.162 317.189 385.144C317.051 385.134 316.913 385.121 316.772 385.109C316.597 385.094 316.419 385.074 316.241 385.059C308.102 384.266 297.204 381.507 286.617 381.073C263.028 380.11 256.088 369.501 256.088 369.501L309.15 357.775C309.782 362.889 311.661 374.359 316.419 381.698C317.292 383.047 318.262 384.256 319.341 385.262Z" fill="url(#paint5_linear_3545_9569)"/>
<path d="M362.422 337.374C360.467 338.315 349.106 341.062 340.178 345.355C335.108 347.799 329.253 351.286 323.756 354.531C321.275 354.914 318.964 355.138 316.927 355.166C300.089 355.387 263.639 350.45 254.686 349.653C250.821 349.312 235.503 347.222 219.324 344.955C200.172 342.272 179.819 339.34 175.864 338.768C175.413 338.703 175.175 338.671 175.175 338.671C175.141 338.546 175.328 338.365 175.704 338.151C176.543 337.663 178.314 336.973 180.601 336.209C186.385 334.286 195.422 331.892 200.83 331.123C209.207 329.928 235.49 337.215 236.251 337.424C236.26 337.426 236.267 337.429 236.267 337.429C236.267 337.429 238.673 332.491 240.598 331.68C242.522 330.864 244.124 321.949 247.814 318.605C251.5 315.262 294.156 322.599 297.202 321.161C300.249 319.722 333.722 322.427 333.722 322.427C333.722 322.427 336.97 326.638 337.288 328.198C337.612 329.751 340.178 331.68 340.178 331.68C340.178 331.68 352.955 334.639 360.439 337.076C361.154 337.309 361.82 337.153 362.422 337.374Z" fill="#C92E2C"/>
<path d="M247.747 318.143C251.149 310.923 259.663 296.965 259.177 292.875C258.848 290.117 258.35 281.059 258.059 275.447C257.918 272.734 257.826 270.825 257.826 270.825C257.826 270.825 325.085 266.402 325.817 273.14C325.956 274.451 325.908 275.989 325.759 277.684C325.13 284.69 322.783 294.322 325.33 301.299C328.491 309.96 332.867 319.59 334.611 321.995C336.357 324.399 244.34 325.365 247.747 318.143Z" fill="#FFAF97"/>
<path d="M269.107 120.807C269.107 120.807 262.347 134.574 262.274 148.233C262.202 161.895 257.998 164.664 245.678 175.157C233.357 185.652 216.905 203.946 239.735 226.684C262.564 249.422 344.241 221.364 344.241 221.364C344.241 221.364 353.665 208.059 346.351 186.44C343.939 179.312 339.884 172.867 334.621 167.511C331.682 164.523 328.117 160.28 326.269 155.783C322.791 147.317 322.462 124.322 317.987 120.807H269.107Z" fill="#641A2A"/>
<path d="M357.019 221.749C352.858 225.672 348.336 229.216 343.513 232.331C341.1 233.891 338.612 235.341 336.056 236.678C335.459 236.991 334.858 237.295 334.251 237.596C334.223 237.608 334.195 237.623 334.168 237.636C334.002 237.719 333.839 237.799 333.671 237.882C330.925 239.218 328.103 240.425 325.216 241.493C317.82 244.232 309.987 246.066 301.848 246.863C301.442 246.903 301.033 246.938 300.624 246.974C297.97 247.202 295.289 247.315 292.575 247.315C288.101 247.315 283.701 247.001 279.394 246.397C272.075 245.368 265.025 243.5 258.349 240.889C257.693 240.631 257.038 240.367 256.389 240.096C256.24 240.034 256.091 239.971 255.942 239.908C255.264 239.62 254.59 239.326 253.919 239.023C249.615 237.079 245.483 234.819 241.553 232.276C237.85 229.878 234.326 227.227 231.007 224.345C233.939 210.097 243.154 202.249 252.367 199.49C263.415 196.181 279.102 190.608 282.675 184.684C283.784 182.848 284.205 179.583 284.257 175.948C284.267 175.244 284.264 174.524 284.249 173.799C284.09 166.224 282.675 157.995 282.675 157.995L294.256 161.298V160.782L305.838 157.478C305.838 157.478 305.279 160.724 304.825 165.015C304.461 168.449 304.163 172.55 304.273 176.194C304.371 179.517 304.805 182.462 305.838 184.17C309.41 190.092 325.096 195.665 336.144 198.973C344.9 201.596 353.656 208.812 357.019 221.749Z" fill="url(#paint6_linear_3545_9569)"/>
<path d="M274.116 147.22C273.843 145.432 272.978 143.771 271.598 142.6C270.182 141.401 268.27 140.508 266.663 142.322C263.695 145.673 268.883 158.717 272.411 156.006C274.74 154.215 274.529 149.929 274.116 147.22Z" fill="url(#paint7_linear_3545_9569)"/>
<path d="M313.252 146.696C313.526 144.908 314.391 143.245 315.77 142.076C317.188 140.877 319.099 139.984 320.706 141.798C323.674 145.146 318.487 158.191 314.958 155.479C312.63 153.691 312.841 149.402 313.252 146.696Z" fill="url(#paint8_linear_3545_9569)"/>
<path d="M256.389 240.096C256.24 240.033 256.09 239.971 255.941 239.908C255.263 239.62 254.589 239.326 253.919 239.023C254.104 234.511 254.566 228.566 255.55 220.957C255.55 220.957 255.72 230.493 256.323 239.183C256.344 239.489 256.366 239.793 256.389 240.096Z" fill="url(#paint9_linear_3545_9569)"/>
<path d="M303.883 176.318C295.221 190.62 286.68 180.244 283.904 176.081C283.914 175.4 283.911 174.705 283.896 174.002C287.286 171.976 299.096 165.174 304.434 165.518C304.068 168.836 303.773 172.797 303.883 176.318Z" fill="#FF6A36"/>
<path d="M257.052 204.659C257.052 204.659 274.257 205.07 282.973 208.01C291.831 210.997 258.653 205.492 257.052 204.659Z" fill="url(#paint10_linear_3545_9569)"/>
<path d="M329.366 204.559C329.366 204.559 312.163 204.967 303.447 207.909C294.589 210.897 327.766 205.391 329.366 204.559Z" fill="url(#paint11_linear_3545_9569)"/>
<path d="M290.507 208.509C290.507 208.509 294.751 213.921 296.551 208.281C296.551 208.281 294.871 210.846 290.507 208.509Z" fill="url(#paint12_linear_3545_9569)"/>
<path d="M272.774 130.813C272.774 130.813 265.498 169.624 291.061 179.324C293.966 180.427 297.2 180.18 299.898 178.624C306.803 174.648 318.51 163.045 314.485 130.813C314.485 130.813 296.488 116.454 272.774 130.813Z" fill="#FFAF97"/>
<path d="M271.565 142.552C271.565 142.552 289.341 136.022 293.355 124.231C293.355 124.231 297.587 132.636 305.396 136.505C313.209 140.374 315.454 142.033 315.454 142.033C315.454 142.033 317.913 128.692 315.344 127.17C312.775 125.648 285.326 120.116 276.375 125.589C267.423 131.062 271.565 142.552 271.565 142.552Z" fill="#641A2A"/>
<path d="M318.931 135.593C318.931 135.593 321.152 144.499 329.575 147.622C335.692 149.893 338.677 154.925 339.461 159.465C339.461 159.465 340.034 152.262 330.533 147.294C320.021 141.802 320.72 129.264 320.72 129.264L318.931 136.169V135.593Z" fill="#641A2A"/>
<path d="M264.567 150.09C264.567 150.09 262.347 158.996 253.924 162.119C247.806 164.39 244.82 169.422 244.037 173.962C244.037 173.962 243.463 166.758 252.967 161.791C263.478 156.299 262.78 143.76 262.78 143.76L264.567 150.666V150.09Z" fill="#641A2A"/>
<path d="M141.158 324.721C141.176 324.262 141.579 320.025 142.481 319.845C143.384 319.664 145.129 321.109 145.129 323.216C145.129 325.32 145.49 328.209 145.49 328.209L147.777 332.722C147.777 332.722 153.975 335.491 154.818 335.852C155.66 336.213 159.331 340.424 159.09 340.845C158.849 341.267 156.923 341.929 154.155 340.845C151.387 339.764 146.814 339.403 144.768 337.658C142.722 335.912 140.736 335.25 141.158 324.721Z" fill="url(#paint13_linear_3545_9569)"/>
<path d="M148.465 317.234C148.806 316.554 149.909 314.505 152.075 314.585C154.242 314.666 156.167 316.271 158.093 317.956C160.019 319.642 162.185 321.405 166.116 321.646C170.048 321.886 175.985 324.615 177.269 324.455C178.553 324.294 178.151 326.14 175.183 326.782C172.214 327.422 168.844 331.515 166.999 331.836C165.153 332.157 159.778 333.843 158.735 330.552C157.692 327.261 154.081 322.689 151.674 321.004C149.267 319.321 148.08 317.999 148.465 317.234Z" fill="url(#paint14_linear_3545_9569)"/>
<path d="M253.652 233.818C253.652 233.818 250.366 274.029 243.454 289.413C243.454 289.413 242.131 293.261 241.652 295.344C241.173 297.426 243.152 299.51 227.872 310.408C212.592 321.304 193.751 330.599 188.482 332.041C183.213 333.484 178.103 325.792 183.532 322.105C188.961 318.421 204.928 305.439 206.684 302.876C208.441 300.311 217.861 291.016 220.895 289.095C223.929 287.171 224.727 278.838 225.685 275.151C226.643 271.467 230.273 252.328 230.853 247.233C231.433 242.141 228.915 230.842 230.853 224.295C232.791 217.75 254.794 228.861 253.652 233.818Z" fill="#FFAF97"/>
<path d="M145.858 320.883C145.932 320.655 147.741 316.07 148.394 315.889C149.047 315.709 150.672 316.251 151.093 317.154C151.515 318.056 150.391 320.78 150.201 321.585C150.01 322.388 151.187 329.549 151.187 329.549C151.187 329.549 154.764 333.522 155.245 333.582C155.727 333.642 157.231 331.535 158.014 331.234C158.796 330.933 164.753 337.673 164.573 338.034C164.392 338.395 159.518 342.847 158.074 342.067C156.629 341.284 154.945 341.314 151.996 339.072C149.047 336.83 146.279 335.686 145.858 334.605C145.437 333.522 145.316 328.887 145.316 327.803C145.316 326.722 145.717 321.32 145.858 320.883Z" fill="url(#paint15_linear_3545_9569)"/>
<path d="M161.806 335.506C161.626 335.445 156.089 334.184 155.728 333.642C155.367 333.1 153.442 329.067 153.141 328.586C152.84 328.104 151.997 322.689 150.975 322.027C149.952 321.365 148.947 321.004 148.396 321.244C147.845 321.485 147.923 327.201 148.396 328.044C148.868 328.887 150.493 335.746 151.155 336.709C151.817 337.673 154.645 339.539 155.428 339.9C156.21 340.261 158.376 342.548 160.964 342.368C163.551 342.187 169.87 339.659 170.532 339.358C171.194 339.057 189.697 332.636 190.404 331.573C191.112 330.512 190.57 326 188.825 324.976C187.08 323.953 183.205 322.461 183.092 322.549C182.98 322.636 179.072 324.226 176.968 324.45C174.864 324.675 163.115 331.355 163.115 331.355L161.806 335.506Z" fill="url(#paint16_linear_3545_9569)"/>
<path d="M157.415 331.658C156.754 330.394 154.21 325.897 155.309 325.22C156.409 324.54 158.438 324.859 158.679 325.762C158.92 326.662 160.123 329.311 160.123 329.311C160.123 329.311 162.952 331.056 163.614 331.658C164.275 332.26 166.622 332.019 168.066 331.658C169.511 331.297 171.376 332.441 171.316 333.825C171.256 335.207 169.992 337.374 168.789 337.314C167.585 337.254 162.771 337.918 161.808 337.316C160.846 336.712 157.415 331.658 157.415 331.658Z" fill="url(#paint17_linear_3545_9569)"/>
<path d="M446.49 320.795C446.473 320.339 446.069 316.103 445.166 315.922C444.263 315.742 442.52 317.186 442.52 319.291C442.52 321.397 442.159 324.284 442.159 324.284L439.871 328.799C439.871 328.799 433.674 331.568 432.831 331.929C431.988 332.29 428.316 336.501 428.557 336.923C428.798 337.344 430.724 338.006 433.493 336.923C436.26 335.839 440.835 335.478 442.881 333.732C444.925 331.989 446.912 331.327 446.49 320.795Z" fill="url(#paint18_linear_3545_9569)"/>
<path d="M439.182 313.309C438.841 312.629 437.737 310.582 435.57 310.663C433.403 310.743 431.479 312.348 429.553 314.031C427.627 315.717 425.46 317.482 421.53 317.723C417.599 317.964 411.66 320.69 410.376 320.532C409.094 320.369 409.496 322.215 412.463 322.857C415.432 323.499 418.801 327.593 420.647 327.911C422.493 328.235 427.868 329.918 428.911 326.629C429.954 323.339 433.564 318.766 435.971 317.081C438.379 315.396 439.566 314.076 439.182 313.309Z" fill="url(#paint19_linear_3545_9569)"/>
<path d="M333.471 230.194C333.471 230.194 336.811 270.406 343.839 285.791C343.839 285.791 345.184 289.638 345.671 291.719C346.158 293.803 344.146 295.887 359.679 306.783C375.215 317.682 394.372 326.977 399.728 328.417C405.084 329.86 410.281 322.168 404.76 318.483C399.241 314.796 383.007 301.816 381.221 299.251C379.437 296.689 369.859 287.394 366.774 285.47C363.691 283.546 362.879 275.213 361.904 271.528C360.93 267.841 357.238 248.702 356.65 243.61C356.061 238.515 358.619 227.218 356.65 220.671C354.678 214.126 332.309 225.237 333.471 230.194Z" fill="#FFAF97"/>
<path d="M441.788 316.96C441.716 316.732 439.905 312.147 439.253 311.967C438.601 311.786 436.975 312.328 436.554 313.228C436.133 314.131 437.256 316.858 437.447 317.66C437.638 318.465 436.461 325.626 436.461 325.626C436.461 325.626 432.885 329.596 432.403 329.657C431.922 329.717 430.417 327.612 429.634 327.311C428.852 327.01 422.895 333.75 423.075 334.111C423.256 334.472 428.129 338.924 429.574 338.142C431.019 337.359 432.704 337.389 435.651 335.149C438.601 332.907 441.367 331.763 441.788 330.68C442.21 329.596 442.33 324.964 442.33 323.88C442.33 322.797 441.931 317.397 441.788 316.96Z" fill="url(#paint20_linear_3545_9569)"/>
<path d="M425.842 331.583C426.023 331.523 431.561 330.259 431.922 329.717C432.283 329.175 434.207 325.144 434.508 324.663C434.809 324.181 435.652 318.766 436.675 318.104C437.698 317.442 438.704 317.081 439.253 317.322C439.805 317.562 439.725 323.278 439.253 324.121C438.782 324.964 437.157 331.824 436.495 332.787C435.832 333.75 433.006 335.613 432.223 335.975C431.441 336.336 429.274 338.623 426.685 338.443C424.099 338.262 417.779 335.736 417.119 335.435C416.457 335.134 397.952 328.711 397.245 327.65C396.537 326.589 397.079 322.074 398.825 321.051C400.571 320.03 404.446 318.538 404.556 318.626C404.669 318.714 408.577 320.304 410.681 320.527C412.785 320.75 424.536 327.432 424.536 327.432L425.842 331.583Z" fill="url(#paint21_linear_3545_9569)"/>
<path d="M430.232 327.733C430.894 326.471 433.437 321.974 432.338 321.295C431.24 320.615 429.208 320.933 428.967 321.836C428.727 322.739 427.525 325.388 427.525 325.388C427.525 325.388 424.696 327.131 424.034 327.733C423.372 328.335 421.024 328.094 419.582 327.733C418.137 327.372 416.271 328.515 416.331 329.9C416.392 331.284 417.656 333.451 418.86 333.391C420.064 333.331 424.877 333.996 425.84 333.391C426.803 332.789 430.232 327.733 430.232 327.733Z" fill="url(#paint22_linear_3545_9569)"/>
<path d="M318.931 358.797C318.931 358.797 388.432 347.379 391.069 343.877C393.709 340.375 382.332 334.705 318.931 358.797Z" fill="#C92E2C"/>
<path d="M269.4 120.765C269.4 120.765 278.64 103.7 295.103 110.205C295.103 110.205 306.941 104.675 317.723 120.765C317.723 120.765 310.738 124.003 306.949 123.046C303.157 122.09 291.494 122.34 288.799 122.34C286.103 122.34 269.4 120.765 269.4 120.765Z" fill="#641A2A"/>
<path d="M331.883 237.596C331.856 237.608 331.828 237.623 331.801 237.636C331.828 237.663 331.856 237.691 331.883 237.721C331.688 237.814 331.492 237.907 331.294 237.999C331.296 237.959 331.299 237.919 331.304 237.882C331.319 237.648 331.337 237.418 331.352 237.184C331.928 228.621 332.092 219.427 332.092 219.427C333.02 226.587 333.484 232.273 333.687 236.678C333.09 236.991 332.488 237.295 331.883 237.596Z" fill="url(#paint23_linear_3545_9569)"/>
<path d="M257.052 234.513C256.942 232.587 255.226 203.001 253.918 199.018C253.918 199.018 253.707 198.015 255.485 198.532C255.485 198.532 258.868 215.577 259.51 234.513H257.052Z" fill="url(#paint24_linear_3545_9569)"/>
<path d="M329.94 232.72C330.042 230.821 331.648 201.624 332.872 197.694C332.872 197.694 333.067 196.703 331.404 197.215C331.404 197.215 328.242 214.037 327.64 232.72H329.94Z" fill="url(#paint25_linear_3545_9569)"/>
<path d="M289.15 309.592C290.545 309.592 291.676 310.033 291.676 310.575C291.676 311.119 290.545 311.558 289.15 311.558C287.753 311.558 286.622 311.119 286.622 310.575C286.622 310.033 287.753 309.592 289.15 309.592Z" fill="url(#paint26_linear_3545_9569)"/>
<path d="M325.487 278.13C323.656 278.536 321.592 278.915 319.342 279.248C308.725 280.818 302.036 278.157 286.618 279.12C274.896 279.858 263.346 277.204 258.485 275.892C258.345 273.179 258.255 271.27 258.255 271.27C258.255 271.27 324.82 266.846 325.545 273.585C325.683 274.897 325.635 276.434 325.487 278.13Z" fill="url(#paint27_linear_3545_9569)"/>
<path d="M329.258 265.111L326.139 276.628C326.139 276.628 317.674 276.876 310.729 275.615C303.79 274.361 295.666 272.954 284.153 274.67C272.635 276.381 257.94 275.648 257.94 273.444C257.94 271.237 256.601 263.139 256.601 263.139C250.181 255.531 253.193 236.421 253.193 236.421C253.193 236.421 258.262 226.959 292.117 225.975C325.471 225.013 333.522 234.87 333.819 235.208C333.824 235.208 333.824 235.208 333.824 235.208C337.133 254.487 329.258 265.111 329.258 265.111Z" fill="white"/>
<path d="M253.212 347.497C249.129 345.731 232.853 345.642 220.025 345.603C212.159 345.583 205.59 345.577 203.918 345.216C199.518 344.264 177.525 345.216 176.607 339.513C176.589 339.385 176.563 339.263 176.539 339.138C176.495 338.923 176.438 338.704 176.379 338.493C177.218 337.984 178.99 337.263 181.279 336.465C187.066 334.455 196.108 331.953 201.519 331.15C209.901 329.901 236.2 337.516 236.961 337.734C236.971 337.737 236.977 337.739 236.977 337.739C240.393 338.374 259.637 341.032 262.571 345.216C265.502 349.397 259.797 350.349 253.212 347.497Z" fill="#C92E2C"/>
<path d="M356.32 339.716C354.37 340.676 350.02 340.818 341.088 345.191C336.016 347.674 330.16 351.226 324.664 354.532C319.034 357.922 313.779 361.059 310.131 362.533C302.914 365.452 296.842 368.854 284.882 369.503C272.917 370.149 246.01 375.546 241.682 375.708C241.682 375.708 240.973 376.635 240.915 376.638C238.881 376.708 229.132 376.942 217.64 376.916C201.594 376.888 182.149 376.359 175.561 374.203C172.231 373.116 169.408 371.831 167.094 370.387C163.341 368.044 160.945 365.275 159.971 362.222C159.486 360.714 159.35 359.136 159.564 357.507C160.481 350.537 170.526 338.249 178.413 336.207C179.087 336.033 180.127 335.924 181.471 335.878C193.851 335.437 232.21 340.056 252.823 343.904C256.139 344.522 258.996 345.12 261.211 345.678C261.211 345.678 283.665 347.783 285.909 347.134C288.157 346.486 288.473 335.625 293.929 334.006C299.381 332.384 307.885 334.33 311.733 337.892C315.584 341.462 314.463 343.438 326.652 340.345C338.839 337.246 340.829 337.041 344.861 337.563C346.565 337.786 347.814 337.692 353.615 338.024C354.658 338.082 355.265 338.371 355.606 338.533C355.768 338.612 356.613 339.579 356.32 339.716Z" fill="#FFAF97"/>
<path d="M252.487 343.901C250.873 350.406 246.07 369.77 240.581 376.637C240.581 376.637 240.552 376.637 240.494 376.639C239.455 376.652 229.233 376.789 217.05 376.918C200.887 376.89 181.301 376.361 174.665 374.204C171.312 373.117 166.396 370.789 164.065 369.342C162.307 367.472 161.27 366.458 160.008 365.024C158.74 363.585 158.118 361.684 158.284 359.771C158.356 358.953 158.467 358.157 158.553 357.506C159.476 350.535 169.594 338.246 177.538 336.203C184.481 334.419 229.469 339.634 252.487 343.901Z" fill="#FF585A"/>
<path d="M274.55 262.846C274.55 262.846 295.512 258.565 308.539 262.846C321.567 267.13 312.701 269.106 307.455 267.788C302.206 266.47 285.378 265.976 281.216 267.13C277.054 268.281 269.875 266.141 274.55 262.846Z" fill="#F0E3E0"/>
<path d="M467.66 272.594C467.66 284.152 458.293 293.514 446.74 293.514C436.991 293.514 428.799 286.848 426.479 277.826C426.051 276.153 425.822 274.402 425.822 272.594C425.822 261.044 435.185 251.676 446.74 251.676C452.19 251.676 457.154 253.763 460.876 257.179C465.047 261.001 467.66 266.494 467.66 272.594Z" fill="#FFBF6D"/>
<path d="M192.084 182.419C192.084 196.428 180.995 207.788 167.318 207.788C155.64 207.788 145.848 199.509 143.24 188.364C142.815 186.56 142.578 184.684 142.559 182.752C142.553 182.642 142.553 182.531 142.553 182.419C142.553 181.284 142.625 180.164 142.765 179.064C142.79 178.88 142.815 178.695 142.843 178.511C143.037 177.245 143.318 176.01 143.687 174.813C144.411 172.453 145.461 170.239 146.788 168.232C150.683 162.318 156.955 158.182 164.198 157.247C165.219 157.116 166.263 157.049 167.318 157.049C168.008 157.049 168.693 157.077 169.367 157.136C169.498 157.144 169.63 157.157 169.757 157.175C170.695 157.267 171.616 157.413 172.519 157.613C173.999 157.936 175.433 158.397 176.801 158.979C178.469 159.686 180.043 160.575 181.505 161.623C183.254 162.879 184.84 164.36 186.218 166.026C189.875 170.446 192.084 176.166 192.084 182.419Z" fill="#FFBF6D"/>
<path d="M409.702 193.157C409.702 200.638 403.638 206.705 396.156 206.705C389.053 206.705 383.229 201.243 382.652 194.29C382.622 193.919 382.604 193.54 382.604 193.157C382.604 185.672 388.672 179.608 396.156 179.608C396.274 179.608 396.397 179.608 396.517 179.61C403.831 179.801 409.702 185.793 409.702 193.157Z" fill="#757ED1"/>
<path d="M138.928 279.668C138.928 287.343 132.709 293.561 125.037 293.561C117.363 293.561 111.143 287.343 111.143 279.668C111.143 279.331 111.155 278.997 111.181 278.665C111.692 271.464 117.7 265.776 125.037 265.776C125.997 265.776 126.938 265.873 127.844 266.058C134.17 267.357 138.928 272.956 138.928 279.668Z" fill="#641A2A"/>
<path d="M391.547 276.713C391.547 276.713 387.514 264.909 403.513 259.198C403.513 259.198 407.112 275.907 391.547 276.713Z" fill="#B79868"/>
<path d="M444.483 304.538C444.483 304.538 449.575 293.151 465.176 299.873C465.176 299.873 456.425 314.555 444.483 304.538Z" fill="#796A38"/>
<path d="M161.555 276.632C161.555 276.632 149.167 277.769 147.385 260.943C147.385 260.943 164.428 261.376 161.555 276.632Z" fill="#796A38"/>
<path d="M130.472 315.165C130.472 315.165 122.933 326.175 108.727 315.434C108.727 315.434 120.64 301.738 130.472 315.165Z" fill="#B79868"/>
<path d="M466.426 331.743C466.426 331.743 460.121 334.831 455.797 326.301C455.797 326.301 464.874 323.108 466.426 331.743Z" fill="#796A38"/>
<path d="M119.599 333.246C119.599 333.246 118.367 340.905 108.727 339.228C108.727 339.228 111.533 329.016 119.599 333.246Z" fill="#796A38"/>
<path d="M223.017 183.627C223.017 183.627 216.101 175.386 228.385 166.714C228.385 166.714 236.34 178.933 223.017 183.627Z" fill="#796A38"/>
<path d="M247.518 147.366C247.518 147.366 240.479 148.182 239.198 138.928C239.198 138.928 248.912 138.906 247.518 147.366Z" fill="#B79868"/>
<path d="M344.474 165.506C344.474 165.506 339.883 159.842 347.439 153.425C347.439 153.425 352.789 161.875 344.474 165.506Z" fill="#796A38"/>
<path d="M361.257 243.903C361.257 243.903 359.907 234.138 372.084 231.95C372.084 231.95 372.489 245.476 361.257 243.903Z" fill="#796A38"/>
<path d="M192.084 182.838C192.084 196.617 181.114 207.788 167.582 207.788C156.028 207.788 146.341 199.644 143.761 188.683C144.913 188.536 146.477 188.819 148.578 189.714C160.021 194.591 165.648 202.326 167.582 195.833C169.517 189.338 161.584 181.603 174.235 178.286C181.29 176.435 185.171 171.893 186.28 166.714C189.899 171.059 192.084 176.688 192.084 182.838Z" fill="#E8A256"/>
<path d="M164.298 158.257C163.698 160.274 160.185 162.869 158.122 164.451C155.008 166.838 153.97 166.07 153.123 169.939C152.272 173.806 150.386 173.148 147.082 171.186C146.145 170.63 146.016 169.552 146.332 168.262C150.351 162.876 156.823 159.109 164.298 158.257Z" fill="#FFD1A4"/>
<path d="M180.399 168.69C178.295 177.114 171.89 170.53 174.635 166.068C176.044 163.778 176.373 161.36 176.495 159.465C178.164 160.128 179.739 160.961 181.202 161.943C181.259 163.898 181.021 166.201 180.399 168.69Z" fill="#FFD1A4"/>
<path d="M154.261 187.11C154.952 186.648 157.675 187.035 160.505 185.665C163.336 184.295 164.33 184.388 164.208 187.728C164.085 191.068 165.501 193.503 160.339 191.144C155.177 188.786 151.763 188.786 154.261 187.11Z" fill="#E8A256"/>
<path d="M157.867 179.503C153.142 181.376 157.091 185.717 149.17 184.676C146.626 184.341 144.403 183.449 142.559 182.394C142.553 182.292 142.553 182.189 142.553 182.085C142.553 181.032 142.623 179.993 142.759 178.973C144.915 179.194 147.46 179.075 150.125 178.156C157.403 175.641 159.001 170.323 160.775 174.024C162.549 177.725 162.595 177.63 157.867 179.503Z" fill="#FFD1A4"/>
<path d="M168.815 167.975C166.458 172.481 164.947 169.233 164.565 168.821C163.13 167.266 167.973 161.086 167.436 157.049C168.071 157.049 168.7 157.079 169.321 157.141C169.441 157.15 169.562 157.163 169.68 157.182C170.643 160.169 170.703 164.358 168.815 167.975Z" fill="#FFD1A4"/>
<path d="M409.704 193.157C409.704 200.638 403.639 206.705 396.157 206.705C389.054 206.705 383.23 201.243 382.653 194.29C384.339 195.176 386.187 196.527 387.524 198.383C390.639 202.71 400.905 202.61 400.173 197.069C399.44 191.529 396.947 189.878 400.21 187.676C402.48 186.149 399.859 181.86 396.518 179.61C403.832 179.801 409.704 185.793 409.704 193.157Z" fill="#4D5297"/>
<path d="M467.661 272.594C467.661 284.152 458.293 293.514 446.74 293.514C436.991 293.514 428.8 286.848 426.479 277.826C426.542 275.629 426.913 273.821 427.312 272.594C427.573 271.786 432.604 265.04 436.535 275.21C440.465 285.386 449.602 289.785 453.419 284.284C456.981 279.158 445.511 260.166 460.876 257.179C465.047 261.001 467.661 266.494 467.661 272.594Z" fill="#E8A256"/>
<path d="M409.321 271.491C409.321 271.491 414.413 260.104 430.013 266.826C430.013 266.826 421.263 281.508 409.321 271.491Z" fill="#796A38"/>
<path d="M441.506 254.954C441.228 255.007 430.844 260.364 434.692 264.764C438.542 269.163 437.32 263.811 441.506 261.949C445.693 260.088 449.543 253.485 441.506 254.954Z" fill="#FFD1A4"/>
<path d="M442.719 265.361C441.846 265.752 438.43 267.528 439.459 271.44C440.49 275.35 441.588 280.116 444.523 278.772C447.455 277.427 445.762 276.291 445.202 273.254C444.643 270.216 447.028 263.439 442.719 265.361Z" fill="#FFD1A4"/>
<path d="M387.094 190.734C387.728 191.102 391.189 192.201 392.075 188.777C392.96 185.356 394.488 182.668 392.075 183.4C389.659 184.135 384.162 189.023 387.094 190.734Z" fill="#7D8BDB"/>
<path d="M393.805 192.108C393.805 192.108 390.078 194.034 391.092 195.499C392.105 196.967 395.855 194.581 393.805 192.108Z" fill="#7D8BDB"/>
<path d="M299.608 97.266C299.696 95.5931 305.517 84.4155 313.574 83.5391C321.635 82.6654 322.086 85.0016 315.949 89.0906C309.813 93.177 299.302 103.108 299.608 97.266Z" fill="white"/>
<path d="M323.791 92.8881C323.996 91.7879 328.333 84.7199 333.57 87.715C338.805 90.7101 323.027 96.9709 323.791 92.8881Z" fill="white"/>
<path d="M306.855 102.567C306.982 101.201 312.976 96.0702 319.464 98.4958C325.955 100.924 332.06 99.2785 332.189 102.567C332.32 105.858 332.356 111.889 325.281 111.066C318.204 110.244 306.578 105.582 306.855 102.567Z" fill="#EACBC5"/>
<path d="M119.85 279.955C116.74 277.611 113.562 277.968 111.143 278.932C111.661 271.582 117.754 265.776 125.194 265.776C126.168 265.776 127.122 265.875 128.041 266.064C133.244 274.432 131.307 272.096 132.72 277.464C134.15 282.892 126.142 284.693 119.85 279.955Z" fill="#872745"/>
<path d="M425.241 372.086C421.316 378.281 413.468 382.602 406.666 384.582C390.686 389.228 350.097 384.222 339.252 384.988C333.915 385.363 327.427 385.37 319.42 385.172C318.347 384.214 317.382 383.063 316.515 381.778C325.237 382.566 406.322 389.385 425.241 372.086Z" fill="#872745"/>
<path d="M294.434 171.546C292.738 171.546 290.407 171.143 289.186 170.542C288.884 170.484 288.685 170.174 288.738 169.849C288.791 169.524 289.079 169.307 289.38 169.365C292.913 170.046 296.633 169.97 300.139 169.144C300.438 169.072 300.733 169.278 300.797 169.601C300.863 169.923 300.673 170.242 300.374 170.312C298.461 171.143 296.501 171.546 294.434 171.546Z" fill="#E0665A"/>
<path d="M302.597 144.323C303.397 145.856 308.74 146.026 310.304 146.165C310.864 146.215 311.625 146.111 311.682 145.597C311.298 144.164 309.571 143.443 308.017 143.06C306.835 142.769 301.161 141.577 302.597 144.323ZM285.734 144.323C284.933 145.856 279.591 146.026 278.027 146.165C277.467 146.215 276.705 146.111 276.648 145.597C277.033 144.164 278.76 143.443 280.314 143.06C281.496 142.769 287.17 141.577 285.734 144.323Z" fill="#313037"/>
<path d="M294.054 163.09C293.807 163.09 293.592 162.902 293.564 162.648C293.535 162.375 293.73 162.129 294.001 162.098L296.029 161.871C295.519 158.849 295.345 155.762 295.509 152.687C295.525 152.413 295.754 152.201 296.029 152.218C296.301 152.233 296.51 152.467 296.495 152.741C296.327 155.916 296.526 159.104 297.091 162.217L297.186 162.742L294.109 163.087C294.092 163.089 294.074 163.09 294.054 163.09Z" fill="#E0665A"/>
<path d="M287.521 150.857C286.894 149.238 284.776 148.182 283.117 148.746C281.417 149.325 280.48 151.45 280.272 153.133C281.583 153.422 282.825 153.541 284.142 153.281C285.46 153.022 286.599 151.85 287.521 150.857Z" fill="#EB8A62"/>
<path d="M288.729 152.821C287.346 153.787 285.001 154.497 283.199 154.621C281.398 154.746 279.885 153.868 279.064 152.532C281.91 153.663 285.628 153.006 287.669 151.009L288.729 152.821Z" fill="#313037"/>
<path d="M302.018 150.851C302.756 149.236 305.244 148.183 307.193 148.746C309.193 149.323 310.228 151.478 310.474 153.157C308.931 153.446 307.538 153.528 305.989 153.269C304.442 153.01 303.101 151.841 302.018 150.851Z" fill="#EB8A62"/>
<path d="M300.81 152.821C302.193 153.787 304.538 154.497 306.339 154.621C308.141 154.746 309.655 153.868 310.474 152.532C307.631 153.663 303.91 153.006 301.87 151.009L300.81 152.821Z" fill="#313037"/>
<defs>
<linearGradient id="paint0_linear_3545_9569" x1="337.527" y1="253.956" x2="468.962" y2="95.0243" gradientUnits="userSpaceOnUse">
<stop stop-color="#917747"/>
<stop offset="0.0242428" stop-color="#917747"/>
<stop offset="0.68623" stop-color="#B79868"/>
<stop offset="1" stop-color="#B79868"/>
</linearGradient>
<linearGradient id="paint1_linear_3545_9569" x1="222.291" y1="362.977" x2="163.997" y2="134.936" gradientUnits="userSpaceOnUse">
<stop stop-color="#917747"/>
<stop offset="0.0242428" stop-color="#917747"/>
<stop offset="0.68623" stop-color="#B79868"/>
<stop offset="1" stop-color="#B79868"/>
</linearGradient>
<linearGradient id="paint2_linear_3545_9569" x1="276.001" y1="354.339" x2="214.958" y2="116.766" gradientUnits="userSpaceOnUse">
<stop stop-color="#917747"/>
<stop offset="0.0242428" stop-color="#917747"/>
<stop offset="0.68623" stop-color="#B79868"/>
<stop offset="1" stop-color="#B79868"/>
</linearGradient>
<linearGradient id="paint3_linear_3545_9569" x1="329.088" y1="316.672" x2="390.681" y2="218.05" gradientUnits="userSpaceOnUse">
<stop stop-color="#917747"/>
<stop offset="0.0242428" stop-color="#917747"/>
<stop offset="0.68623" stop-color="#B79868"/>
<stop offset="1" stop-color="#B79868"/>
</linearGradient>
<linearGradient id="paint4_linear_3545_9569" x1="346.944" y1="337.246" x2="467.3" y2="248.937" gradientUnits="userSpaceOnUse">
<stop stop-color="#917747"/>
<stop offset="0.0242428" stop-color="#917747"/>
<stop offset="0.68623" stop-color="#B79868"/>
<stop offset="1" stop-color="#B79868"/>
</linearGradient>
<linearGradient id="paint5_linear_3545_9569" x1="289.288" y1="318.355" x2="286.893" y2="408.176" gradientUnits="userSpaceOnUse">
<stop stop-color="#E27949"/>
<stop offset="0.457598" stop-color="#E27949"/>
<stop offset="0.727917" stop-color="#FFAF97"/>
<stop offset="1" stop-color="#FFAF97"/>
</linearGradient>
<linearGradient id="paint6_linear_3545_9569" x1="288.068" y1="123.207" x2="294.158" y2="225.477" gradientUnits="userSpaceOnUse">
<stop stop-color="#E27949"/>
<stop offset="0.457598" stop-color="#E27949"/>
<stop offset="0.727917" stop-color="#FFAF97"/>
<stop offset="1" stop-color="#FFAF97"/>
</linearGradient>
<linearGradient id="paint7_linear_3545_9569" x1="269.077" y1="109.159" x2="271.098" y2="187.303" gradientUnits="userSpaceOnUse">
<stop stop-color="#E27949"/>
<stop offset="0.457598" stop-color="#E27949"/>
<stop offset="0.727917" stop-color="#FFAF97"/>
<stop offset="1" stop-color="#FFAF97"/>
</linearGradient>
<linearGradient id="paint8_linear_3545_9569" x1="316.27" y1="107.938" x2="318.291" y2="186.082" gradientUnits="userSpaceOnUse">
<stop stop-color="#E27949"/>
<stop offset="0.457598" stop-color="#E27949"/>
<stop offset="0.727917" stop-color="#FFAF97"/>
<stop offset="1" stop-color="#FFAF97"/>
</linearGradient>
<linearGradient id="paint9_linear_3545_9569" x1="221.789" y1="201.095" x2="276.674" y2="249.231" gradientUnits="userSpaceOnUse">
<stop stop-color="#E27949"/>
<stop offset="0.502166" stop-color="#E27949"/>
<stop offset="0.866932" stop-color="#FFAE88"/>
<stop offset="1" stop-color="#FFAE88"/>
</linearGradient>
<linearGradient id="paint10_linear_3545_9569" x1="289.135" y1="161.409" x2="233.44" y2="298.712" gradientUnits="userSpaceOnUse">
<stop stop-color="#E27949"/>
<stop offset="0.556527" stop-color="#FFAE88"/>
<stop offset="1" stop-color="#FFAE88"/>
</linearGradient>
<linearGradient id="paint11_linear_3545_9569" x1="297.285" y1="161.308" x2="352.98" y2="298.612" gradientUnits="userSpaceOnUse">
<stop stop-color="#E27949"/>
<stop offset="0.556527" stop-color="#FFAE88"/>
<stop offset="1" stop-color="#FFAE88"/>
</linearGradient>
<linearGradient id="paint12_linear_3545_9569" x1="307.015" y1="184.714" x2="265.826" y2="257.509" gradientUnits="userSpaceOnUse">
<stop stop-color="#E27949"/>
<stop offset="0.556527" stop-color="#FFAE88"/>
<stop offset="1" stop-color="#FFAE88"/>
</linearGradient>
<linearGradient id="paint13_linear_3545_9569" x1="145.093" y1="390.155" x2="153.517" y2="294.115" gradientUnits="userSpaceOnUse">
<stop stop-color="#AE451D"/>
<stop offset="0.457598" stop-color="#AE451D"/>
<stop offset="0.727917" stop-color="#FFAE88"/>
<stop offset="1" stop-color="#FFAE88"/>
</linearGradient>
<linearGradient id="paint14_linear_3545_9569" x1="55.9535" y1="251.809" x2="226.852" y2="367.587" gradientUnits="userSpaceOnUse">
<stop stop-color="#AE451D"/>
<stop offset="0.457598" stop-color="#AE451D"/>
<stop offset="0.727917" stop-color="#FFAE88"/>
<stop offset="1" stop-color="#FFAE88"/>
</linearGradient>
<linearGradient id="paint15_linear_3545_9569" x1="137.904" y1="380.095" x2="166.788" y2="295.609" gradientUnits="userSpaceOnUse">
<stop stop-color="#E27949"/>
<stop offset="0.457598" stop-color="#E27949"/>
<stop offset="0.727917" stop-color="#FFAE88"/>
<stop offset="1" stop-color="#FFAE88"/>
</linearGradient>
<linearGradient id="paint16_linear_3545_9569" x1="158.227" y1="362.32" x2="170.577" y2="322.574" gradientUnits="userSpaceOnUse">
<stop stop-color="#E27949"/>
<stop offset="0.457598" stop-color="#E27949"/>
<stop offset="0.727917" stop-color="#FFAF97"/>
<stop offset="1" stop-color="#FFAF97"/>
</linearGradient>
<linearGradient id="paint17_linear_3545_9569" x1="161.782" y1="364.708" x2="163.467" y2="322.585" gradientUnits="userSpaceOnUse">
<stop stop-color="#E27949"/>
<stop offset="0.457598" stop-color="#E27949"/>
<stop offset="0.727917" stop-color="#FFAF97"/>
<stop offset="1" stop-color="#FFAF97"/>
</linearGradient>
<linearGradient id="paint18_linear_3545_9569" x1="442.555" y1="386.233" x2="434.131" y2="290.192" gradientUnits="userSpaceOnUse">
<stop stop-color="#AE451D"/>
<stop offset="0.457598" stop-color="#AE451D"/>
<stop offset="0.727917" stop-color="#FFAE88"/>
<stop offset="1" stop-color="#FFAE88"/>
</linearGradient>
<linearGradient id="paint19_linear_3545_9569" x1="531.692" y1="247.887" x2="360.793" y2="363.664" gradientUnits="userSpaceOnUse">
<stop stop-color="#AE451D"/>
<stop offset="0.457598" stop-color="#AE451D"/>
<stop offset="0.727917" stop-color="#FFAE88"/>
<stop offset="1" stop-color="#FFAE88"/>
</linearGradient>
<linearGradient id="paint20_linear_3545_9569" x1="449.744" y1="376.172" x2="420.86" y2="291.686" gradientUnits="userSpaceOnUse">
<stop stop-color="#E27949"/>
<stop offset="0.457598" stop-color="#E27949"/>
<stop offset="0.727917" stop-color="#FFAE88"/>
<stop offset="1" stop-color="#FFAE88"/>
</linearGradient>
<linearGradient id="paint21_linear_3545_9569" x1="429.424" y1="358.397" x2="417.074" y2="318.652" gradientUnits="userSpaceOnUse">
<stop stop-color="#E27949"/>
<stop offset="0.457598" stop-color="#E27949"/>
<stop offset="0.727917" stop-color="#FFAF97"/>
<stop offset="1" stop-color="#FFAF97"/>
</linearGradient>
<linearGradient id="paint22_linear_3545_9569" x1="425.865" y1="360.785" x2="424.18" y2="318.662" gradientUnits="userSpaceOnUse">
<stop stop-color="#E27949"/>
<stop offset="0.457598" stop-color="#E27949"/>
<stop offset="0.727917" stop-color="#FFAF97"/>
<stop offset="1" stop-color="#FFAF97"/>
</linearGradient>
<linearGradient id="paint23_linear_3545_9569" x1="299.862" y1="200.794" x2="351.95" y2="246.476" gradientUnits="userSpaceOnUse">
<stop stop-color="#E27949"/>
<stop offset="0.502166" stop-color="#E27949"/>
<stop offset="0.866932" stop-color="#FFAE88"/>
<stop offset="1" stop-color="#FFAE88"/>
</linearGradient>
<linearGradient id="paint24_linear_3545_9569" x1="255.806" y1="198.323" x2="257.612" y2="234.608" gradientUnits="userSpaceOnUse">
<stop stop-color="white"/>
<stop offset="0.186383" stop-color="white"/>
<stop offset="0.798169" stop-color="#FFE4D9"/>
<stop offset="1" stop-color="#FFE4D9"/>
</linearGradient>
<linearGradient id="paint25_linear_3545_9569" x1="331.146" y1="197.014" x2="329.364" y2="232.807" gradientUnits="userSpaceOnUse">
<stop stop-color="white"/>
<stop offset="0.186383" stop-color="white"/>
<stop offset="0.798169" stop-color="#FFE4D9"/>
<stop offset="1" stop-color="#FFE4D9"/>
</linearGradient>
<linearGradient id="paint26_linear_3545_9569" x1="301.086" y1="306.71" x2="274.691" y2="315.26" gradientUnits="userSpaceOnUse">
<stop stop-color="#E27949"/>
<stop offset="0.457598" stop-color="#E27949"/>
<stop offset="0.727917" stop-color="#FFAE88"/>
<stop offset="1" stop-color="#FFAE88"/>
</linearGradient>
<linearGradient id="paint27_linear_3545_9569" x1="292.598" y1="231.624" x2="291.474" y2="303.032" gradientUnits="userSpaceOnUse">
<stop stop-color="#E27949"/>
<stop offset="0.457598" stop-color="#E27949"/>
<stop offset="0.727917" stop-color="#FFAF97"/>
<stop offset="1" stop-color="#FFAF97"/>
</linearGradient>
</defs>
</svg>
